0
SECTION
2
HEADER
9
$INSUNITS
70
4
9
$ACADVER
1
AC1014
9
$HANDSEED
5
FFFF
0
ENDSEC
0
SECTION
2
TABLES
0
TABLE
2
VPORT
5
8
100
AcDbSymbolTable
0
ENDTAB
0
TABLE
2
LTYPE
5
5
100
AcDbSymbolTable
70
2
0
LTYPE
5
14
100
AcDbSymbolTableRecord
100
AcDbLinetypeTableRecord
2
BYBLOCK
70
0
0
LTYPE
5
15
100
AcDbSymbolTableRecord
100
AcDbLinetypeTableRecord
2
BYLAYER
70
0
0
ENDTAB
0
TABLE
2
LAYER
5
2
100
AcDbSymbolTable
70
3
0
LAYER
5
50
100
AcDbSymbolTableRecord
100
AcDbLayerTableRecord
2
0
70
0
6
CONTINUOUS
0
LAYER
5
51
100
AcDbSymbolTableRecord
100
AcDbLayerTableRecord
2
CUTOUTS
70
0
62
1
6
CONTINUOUS
0
LAYER
5
52
100
AcDbSymbolTableRecord
100
AcDbLayerTableRecord
2
PERIMETER
70
0
62
5
6
CONTINUOUS
0
ENDTAB
0
TABLE
2
STYLE
5
3
100
AcDbSymbolTable
70
1
0
STYLE
5
11
100
AcDbSymbolTableRecord
100
AcDbTextStyleTableRecord
2
STANDARD
70
0
0
ENDTAB
0
TABLE
2
VIEW
5
6
100
AcDbSymbolTable
0
ENDTAB
0
TABLE
2
UCS
5
7
100
AcDbSymbolTable
0
ENDTAB
0
TABLE
2
APPID
5
9
100
AcDbSymbolTable
70
1
0
APPID
5
12
100
AcDbSymbolTableRecord
100
AcDbRegAppTableRecord
2
ACAD
70
0
0
ENDTAB
0
TABLE
2
DIMSTYLE
5
A
100
AcDbSymbolTable
0
ENDTAB
0
TABLE
2
BLOCK_RECORD
5
1
100
AcDbSymbolTable
70
2
0
BLOCK_RECORD
5
1F
100
AcDbSymbolTableRecord
100
AcDbBlockTableRecord
2
*MODEL_SPACE
0
BLOCK_RECORD
5
1B
100
AcDbSymbolTableRecord
100
AcDbBlockTableRecord
2
*PAPER_SPACE
0
ENDTAB
0
ENDSEC
0
SECTION
2
BLOCKS
0
BLOCK
5
20
100
AcDbEntity
100
AcDbBlockBegin
2
*MODEL_SPACE
0
ENDBLK
5
21
100
AcDbEntity
100
AcDbBlockEnd
0
BLOCK
5
1C
100
AcDbEntity
100
AcDbBlockBegin
2
*PAPER_SPACE
0
ENDBLK
5
1D
100
AcDbEntity
100
AcDbBlockEnd
0
ENDSEC
0
SECTION
2
ENTITIES
0
LINE
5
100
100
AcDbEntity
8
PERIMETER
100
AcDbLine
10
-8.4950000000000045
20
-2.004999999999999
30
0
11
-6.5049999999999963
21
-2.004999999999999
31
0
0
LINE
5
101
100
AcDbEntity
8
PERIMETER
100
AcDbLine
10
-6.5049999999999963
20
-2.004999999999999
30
0
11
-6.5049999999999963
21
-9.0000000000000071
31
0
0
ARC
5
102
100
AcDbEntity
8
PERIMETER
100
AcDbCircle
10
-5.4999999999999991
20
-9.0000000000000071
30
0
40
1.004999999999997
210
0
220
0
230
1
100
AcDbArc
50
180
51
269.99999999999955
0
LINE
5
103
100
AcDbEntity
8
PERIMETER
100
AcDbLine
10
-5.5000000000000071
20
-10.005000000000006
30
0
11
5.5000000000000071
21
-10.005000000000006
31
0
0
ARC
5
104
100
AcDbEntity
8
PERIMETER
100
AcDbCircle
10
5.4999999999999973
20
-9.0000000000000071
30
0
40
1.0049999999999981
210
-0
220
0
230
1
100
AcDbArc
50
-89.999999999999446
51
0
0
LINE
5
105
100
AcDbEntity
8
PERIMETER
100
AcDbLine
10
6.5049999999999955
20
-9.0000000000000071
30
0
11
6.5049999999999963
21
-2.004999999999999
31
0
0
LINE
5
106
100
AcDbEntity
8
PERIMETER
100
AcDbLine
10
6.5049999999999963
20
-2.004999999999999
30
0
11
8.4950000000000045
21
-2.004999999999999
31
0
0
LINE
5
107
100
AcDbEntity
8
PERIMETER
100
AcDbLine
10
8.4950000000000045
20
-2.004999999999999
30
0
11
8.4950000000000045
21
-9.0000000000000036
31
0
0
ARC
5
108
100
AcDbEntity
8
PERIMETER
100
AcDbCircle
10
9.5
20
-9.0000000000000036
30
0
40
1.004999999999997
210
0
220
0
230
1
100
AcDbArc
50
180
51
269.9999999999996
0
LINE
5
109
100
AcDbEntity
8
PERIMETER
100
AcDbLine
10
9.4999999999999929
20
-10.005000000000003
30
0
11
20.500000000000007
21
-10.005000000000003
31
0
0
ARC
5
10A
100
AcDbEntity
8
PERIMETER
100
AcDbCircle
10
20.5
20
-9.0000000000000036
30
0
40
1.0049999999999981
210
-0
220
0
230
1
100
AcDbArc
50
-89.999999999999588
51
0
0
LINE
5
10B
100
AcDbEntity
8
PERIMETER
100
AcDbLine
10
21.504999999999995
20
-9.0000000000000036
30
0
11
21.504999999999995
21
-2.004999999999999
31
0
0
LINE
5
10C
100
AcDbEntity
8
PERIMETER
100
AcDbLine
10
21.504999999999995
20
-2.004999999999999
30
0
11
23.495000000000005
21
-2.004999999999999
31
0
0
LINE
5
10D
100
AcDbEntity
8
PERIMETER
100
AcDbLine
10
23.495000000000005
20
-2.004999999999999
30
0
11
23.495000000000005
21
-9.0000000000000036
31
0
0
ARC
5
10E
100
AcDbEntity
8
PERIMETER
100
AcDbCircle
10
24.5
20
-9.0000000000000036
30
0
40
1.0049999999999981
210
0
220
0
230
1
100
AcDbArc
50
180
51
269.9999999999996
0
LINE
5
10F
100
AcDbEntity
8
PERIMETER
100
AcDbLine
10
24.499999999999993
20
-10.005000000000003
30
0
11
35.500000000000007
21
-10.005000000000003
31
0
0
ARC
5
110
100
AcDbEntity
8
PERIMETER
100
AcDbCircle
10
35.5
20
-9.0000000000000036
30
0
40
1.0049999999999981
210
-0
220
0
230
1
100
AcDbArc
50
-89.999999999999588
51
0
0
LINE
5
111
100
AcDbEntity
8
PERIMETER
100
AcDbLine
10
36.504999999999995
20
-9.0000000000000036
30
0
11
36.504999999999995
21
-2.004999999999999
31
0
0
LINE
5
112
100
AcDbEntity
8
PERIMETER
100
AcDbLine
10
36.504999999999995
20
-2.004999999999999
30
0
11
38.495000000000005
21
-2.004999999999999
31
0
0
LINE
5
113
100
AcDbEntity
8
PERIMETER
100
AcDbLine
10
38.495000000000005
20
-2.004999999999999
30
0
11
38.495000000000005
21
-9.0000000000000036
31
0
0
ARC
5
114
100
AcDbEntity
8
PERIMETER
100
AcDbCircle
10
39.5
20
-9.0000000000000036
30
0
40
1.0049999999999981
210
0
220
0
230
1
100
AcDbArc
50
180
51
269.9999999999996
0
LINE
5
115
100
AcDbEntity
8
PERIMETER
100
AcDbLine
10
39.499999999999993
20
-10.005000000000003
30
0
11
50.500000000000007
21
-10.005000000000003
31
0
0
ARC
5
116
100
AcDbEntity
8
PERIMETER
100
AcDbCircle
10
50.500000000000007
20
-9.0000000000000036
30
0
40
1.0049999999999981
210
-0
220
0
230
1
100
AcDbArc
50
-90
51
0
0
LINE
5
117
100
AcDbEntity
8
PERIMETER
100
AcDbLine
10
51.50500000000001
20
-9.0000000000000036
30
0
11
51.505000000000003
21
-2.004999999999999
31
0
0
LINE
5
118
100
AcDbEntity
8
PERIMETER
100
AcDbLine
10
51.505000000000003
20
-2.004999999999999
30
0
11
53.494999999999997
21
-2.004999999999999
31
0
0
LINE
5
119
100
AcDbEntity
8
PERIMETER
100
AcDbLine
10
53.494999999999997
20
-2.004999999999999
30
0
11
53.494999999999997
21
-9
31
0
0
ARC
5
11A
100
AcDbEntity
8
PERIMETER
100
AcDbCircle
10
54.499999999999993
20
-9
30
0
40
1.0049999999999937
210
0
220
0
230
1
100
AcDbArc
50
180
51
270
0
LINE
5
11B
100
AcDbEntity
8
PERIMETER
100
AcDbLine
10
54.499999999999993
20
-10.004999999999992
30
0
11
65.5
21
-10.004999999999997
31
0
0
ARC
5
11C
100
AcDbEntity
8
PERIMETER
100
AcDbCircle
10
65.5
20
-9
30
0
40
1.0049999999999981
210
-0
220
0
230
1
100
AcDbArc
50
-90
51
0
0
LINE
5
11D
100
AcDbEntity
8
PERIMETER
100
AcDbLine
10
66.50500000000001
20
-9
30
0
11
66.504999999999995
21
-2.004999999999999
31
0
0
LINE
5
11E
100
AcDbEntity
8
PERIMETER
100
AcDbLine
10
66.504999999999995
20
-2.004999999999999
30
0
11
68.495000000000005
21
-2.004999999999999
31
0
0
LINE
5
11F
100
AcDbEntity
8
PERIMETER
100
AcDbLine
10
68.495000000000005
20
-2.004999999999999
30
0
11
68.495000000000005
21
-9
31
0
0
ARC
5
120
100
AcDbEntity
8
PERIMETER
100
AcDbCircle
10
69.5
20
-9
30
0
40
1.0049999999999937
210
0
220
0
230
1
100
AcDbArc
50
180
51
270
0
LINE
5
121
100
AcDbEntity
8
PERIMETER
100
AcDbLine
10
69.5
20
-10.004999999999992
30
0
11
80.5
21
-10.004999999999997
31
0
0
ARC
5
122
100
AcDbEntity
8
PERIMETER
100
AcDbCircle
10
80.5
20
-9.0000000000000036
30
0
40
1.0049999999999937
210
-0
220
0
230
1
100
AcDbArc
50
-90
51
0
0
LINE
5
123
100
AcDbEntity
8
PERIMETER
100
AcDbLine
10
81.50500000000001
20
-9
30
0
11
81.50500000000001
21
-2.004999999999999
31
0
0
LINE
5
124
100
AcDbEntity
8
PERIMETER
100
AcDbLine
10
81.50500000000001
20
-2.004999999999999
30
0
11
83.49499999999999
21
-2.004999999999999
31
0
0
LINE
5
125
100
AcDbEntity
8
PERIMETER
100
AcDbLine
10
83.49499999999999
20
-2.004999999999999
30
0
11
83.49499999999999
21
-9
31
0
0
ARC
5
126
100
AcDbEntity
8
PERIMETER
100
AcDbCircle
10
84.5
20
-9.0000000000000036
30
0
40
1.0050000000000026
210
0
220
0
230
1
100
AcDbArc
50
180
51
270
0
LINE
5
127
100
AcDbEntity
8
PERIMETER
100
AcDbLine
10
84.5
20
-10.004999999999997
30
0
11
95.5
21
-10.004999999999997
31
0
0
ARC
5
128
100
AcDbEntity
8
PERIMETER
100
AcDbCircle
10
95.5
20
-9.0000000000000036
30
0
40
1.0049999999999937
210
-0
220
0
230
1
100
AcDbArc
50
-90
51
0
0
LINE
5
129
100
AcDbEntity
8
PERIMETER
100
AcDbLine
10
96.50500000000001
20
-9
30
0
11
96.50500000000001
21
-2.004999999999999
31
0
0
LINE
5
12A
100
AcDbEntity
8
PERIMETER
100
AcDbLine
10
96.50500000000001
20
-2.004999999999999
30
0
11
98.49499999999999
21
-2.004999999999999
31
0
0
LINE
5
12B
100
AcDbEntity
8
PERIMETER
100
AcDbLine
10
98.49499999999999
20
-2.004999999999999
30
0
11
98.49499999999999
21
-8.9999999999999947
31
0
0
ARC
5
12C
100
AcDbEntity
8
PERIMETER
100
AcDbCircle
10
99.5
20
-9
30
0
40
1.0050000000000026
210
0
220
0
230
1
100
AcDbArc
50
180
51
270
0
LINE
5
12D
100
AcDbEntity
8
PERIMETER
100
AcDbLine
10
99.5
20
-10.004999999999992
30
0
11
110.5
21
-10.004999999999992
31
0
0
ARC
5
12E
100
AcDbEntity
8
PERIMETER
100
AcDbCircle
10
110.5
20
-9
30
0
40
1.0049999999999937
210
-0
220
0
230
1
100
AcDbArc
50
-90
51
0
0
LINE
5
12F
100
AcDbEntity
8
PERIMETER
100
AcDbLine
10
111.50500000000001
20
-8.9999999999999947
30
0
11
111.50500000000001
21
-2.004999999999999
31
0
0
LINE
5
130
100
AcDbEntity
8
PERIMETER
100
AcDbLine
10
111.50500000000001
20
-2.004999999999999
30
0
11
113.49499999999999
21
-2.004999999999999
31
0
0
LINE
5
131
100
AcDbEntity
8
PERIMETER
100
AcDbLine
10
113.49499999999999
20
-2.004999999999999
30
0
11
113.49499999999999
21
-8.9999999999999947
31
0
0
ARC
5
132
100
AcDbEntity
8
PERIMETER
100
AcDbCircle
10
114.5
20
-9
30
0
40
1.0050000000000026
210
0
220
0
230
1
100
AcDbArc
50
180
51
270
0
LINE
5
133
100
AcDbEntity
8
PERIMETER
100
AcDbLine
10
114.5
20
-10.004999999999992
30
0
11
125.5
21
-10.004999999999992
31
0
0
ARC
5
134
100
AcDbEntity
8
PERIMETER
100
AcDbCircle
10
125.5
20
-9
30
0
40
1.0049999999999937
210
-0
220
0
230
1
100
AcDbArc
50
-90
51
0
0
LINE
5
135
100
AcDbEntity
8
PERIMETER
100
AcDbLine
10
126.50500000000001
20
-8.9999999999999947
30
0
11
126.50500000000001
21
-2.004999999999999
31
0
0
LINE
5
136
100
AcDbEntity
8
PERIMETER
100
AcDbLine
10
126.50500000000001
20
-2.004999999999999
30
0
11
128.495
21
-2.004999999999999
31
0
0
LINE
5
137
100
AcDbEntity
8
PERIMETER
100
AcDbLine
10
128.495
20
-2.004999999999999
30
0
11
128.495
21
-8.9999999999999893
31
0
0
ARC
5
138
100
AcDbEntity
8
PERIMETER
100
AcDbCircle
10
129.5
20
-8.9999999999999947
30
0
40
1.0050000000000026
210
0
220
0
230
1
100
AcDbArc
50
180
51
270
0
LINE
5
139
100
AcDbEntity
8
PERIMETER
100
AcDbLine
10
129.5
20
-10.004999999999988
30
0
11
140.5
21
-10.004999999999988
31
0
0
ARC
5
13A
100
AcDbEntity
8
PERIMETER
100
AcDbCircle
10
140.5
20
-8.9999999999999947
30
0
40
1.0049999999999937
210
-0
220
0
230
1
100
AcDbArc
50
-90
51
0
0
LINE
5
13B
100
AcDbEntity
8
PERIMETER
100
AcDbLine
10
141.505
20
-8.9999999999999893
30
0
11
141.505
21
-2.004999999999999
31
0
0
LINE
5
13C
100
AcDbEntity
8
PERIMETER
100
AcDbLine
10
141.505
20
-2.004999999999999
30
0
11
143.495
21
-2.004999999999999
31
0
0
LINE
5
13D
100
AcDbEntity
8
PERIMETER
100
AcDbLine
10
143.495
20
-2.004999999999999
30
0
11
143.495
21
-8.9999999999999893
31
0
0
ARC
5
13E
100
AcDbEntity
8
PERIMETER
100
AcDbCircle
10
144.5
20
-8.9999999999999947
30
0
40
1.0050000000000026
210
0
220
0
230
1
100
AcDbArc
50
180
51
270
0
LINE
5
13F
100
AcDbEntity
8
PERIMETER
100
AcDbLine
10
144.5
20
-10.004999999999988
30
0
11
152
21
-10.004999999999988
31
0
0
ARC
5
140
100
AcDbEntity
8
PERIMETER
100
AcDbCircle
10
152
20
-1.9999999999999796
30
0
40
8.0050000000000097
210
-0
220
0
230
1
100
AcDbArc
50
270
51
360
0
LINE
5
141
100
AcDbEntity
8
PERIMETER
100
AcDbLine
10
160.005
20
-1.9999999999999885
30
0
11
160.005
21
-1.4949999999999886
31
0
0
LINE
5
142
100
AcDbEntity
8
PERIMETER
100
AcDbLine
10
160.005
20
-1.4949999999999886
30
0
11
150.00499999999994
21
-1.4949999999999886
31
0
0
LINE
5
143
100
AcDbEntity
8
PERIMETER
100
AcDbLine
10
150.00499999999994
20
-1.4949999999999886
30
0
11
150.00499999999994
21
1.4950000000000185
31
0
0
LINE
5
144
100
AcDbEntity
8
PERIMETER
100
AcDbLine
10
150.00499999999994
20
1.4950000000000185
30
0
11
160.005
21
1.4950000000000185
31
0
0
LINE
5
145
100
AcDbEntity
8
PERIMETER
100
AcDbLine
10
160.005
20
1.4950000000000185
30
0
11
160.005
21
2.0000000000000084
31
0
0
ARC
5
146
100
AcDbEntity
8
PERIMETER
100
AcDbCircle
10
152
20
2.0000000000000018
30
0
40
8.0049999999999955
210
0
220
-0
230
1
100
AcDbArc
50
0
51
90
0
LINE
5
147
100
AcDbEntity
8
PERIMETER
100
AcDbLine
10
152
20
10.005000000000006
30
0
11
150.02227272727276
21
10.005000000000006
31
0
0
LINE
5
148
100
AcDbEntity
8
PERIMETER
100
AcDbLine
10
150.02227272727276
20
10.005000000000006
30
0
11
150.02227272727276
21
7.0050000000000061
31
0
0
LINE
5
149
100
AcDbEntity
8
PERIMETER
100
AcDbLine
10
150.02227272727276
20
7.0050000000000061
30
0
11
125.005
21
7.0050000000000061
31
0
0
LINE
5
14A
100
AcDbEntity
8
PERIMETER
100
AcDbLine
10
125.005
20
7.0050000000000061
30
0
11
125.005
21
10.005000000000006
31
0
0
LINE
5
14B
100
AcDbEntity
8
PERIMETER
100
AcDbLine
10
125.005
20
10.005000000000006
30
0
11
74.995000000000005
21
10.005000000000006
31
0
0
LINE
5
14C
100
AcDbEntity
8
PERIMETER
100
AcDbLine
10
74.995000000000005
20
10.005000000000006
30
0
11
74.995000000000005
21
7.0050000000000061
31
0
0
LINE
5
14D
100
AcDbEntity
8
PERIMETER
100
AcDbLine
10
74.995000000000005
20
7.0050000000000061
30
0
11
25.004999999999995
21
7.0050000000000061
31
0
0
LINE
5
14E
100
AcDbEntity
8
PERIMETER
100
AcDbLine
10
25.004999999999995
20
7.0050000000000061
30
0
11
25.004999999999995
21
10.005000000000006
31
0
0
LINE
5
14F
100
AcDbEntity
8
PERIMETER
100
AcDbLine
10
25.004999999999995
20
10.005000000000006
30
0
11
-25.004999999999995
21
10.005000000000006
31
0
0
LINE
5
150
100
AcDbEntity
8
PERIMETER
100
AcDbLine
10
-25.004999999999995
20
10.005000000000006
30
0
11
-25.004999999999995
21
7.0050000000000061
31
0
0
LINE
5
151
100
AcDbEntity
8
PERIMETER
100
AcDbLine
10
-25.004999999999995
20
7.0050000000000061
30
0
11
-74.995000000000005
21
7.0050000000000061
31
0
0
LINE
5
152
100
AcDbEntity
8
PERIMETER
100
AcDbLine
10
-74.995000000000005
20
7.0050000000000061
30
0
11
-74.995000000000005
21
10.005000000000006
31
0
0
LINE
5
153
100
AcDbEntity
8
PERIMETER
100
AcDbLine
10
-74.995000000000005
20
10.005000000000006
30
0
11
-125.005
21
10.005000000000006
31
0
0
LINE
5
154
100
AcDbEntity
8
PERIMETER
100
AcDbLine
10
-125.005
20
10.005000000000006
30
0
11
-125.005
21
7.0050000000000061
31
0
0
LINE
5
155
100
AcDbEntity
8
PERIMETER
100
AcDbLine
10
-125.005
20
7.0050000000000061
30
0
11
-150.02227272727276
21
7.0050000000000061
31
0
0
LINE
5
156
100
AcDbEntity
8
PERIMETER
100
AcDbLine
10
-150.02227272727276
20
7.0050000000000061
30
0
11
-150.02227272727276
21
10.005000000000006
31
0
0
LINE
5
157
100
AcDbEntity
8
PERIMETER
100
AcDbLine
10
-150.02227272727276
20
10.005000000000006
30
0
11
-152
21
10.005000000000006
31
0
0
ARC
5
158
100
AcDbEntity
8
PERIMETER
100
AcDbCircle
10
-152
20
2.0000000000000018
30
0
40
8.0050000000000043
210
-0
220
0
230
1
100
AcDbArc
50
90
51
180
0
LINE
5
159
100
AcDbEntity
8
PERIMETER
100
AcDbLine
10
-160.005
20
2.0000000000000071
30
0
11
-160.005
21
1.4950000000000185
31
0
0
LINE
5
15A
100
AcDbEntity
8
PERIMETER
100
AcDbLine
10
-160.005
20
1.4950000000000185
30
0
11
-150.00499999999994
21
1.4950000000000185
31
0
0
LINE
5
15B
100
AcDbEntity
8
PERIMETER
100
AcDbLine
10
-150.00499999999994
20
1.4950000000000185
30
0
11
-150.00499999999994
21
-1.4949999999999886
31
0
0
LINE
5
15C
100
AcDbEntity
8
PERIMETER
100
AcDbLine
10
-150.00499999999994
20
-1.4949999999999886
30
0
11
-160.005
21
-1.4949999999999886
31
0
0
LINE
5
15D
100
AcDbEntity
8
PERIMETER
100
AcDbLine
10
-160.005
20
-1.4949999999999886
30
0
11
-160.005
21
-1.9999999999999907
31
0
0
ARC
5
15E
100
AcDbEntity
8
PERIMETER
100
AcDbCircle
10
-152
20
-1.9999999999999818
30
0
40
8.0049999999999955
210
0
220
0
230
1
100
AcDbArc
50
180
51
270
0
LINE
5
15F
100
AcDbEntity
8
PERIMETER
100
AcDbLine
10
-152
20
-10.004999999999988
30
0
11
-144.5
21
-10.004999999999988
31
0
0
ARC
5
160
100
AcDbEntity
8
PERIMETER
100
AcDbCircle
10
-144.5
20
-8.9999999999999947
30
0
40
1.0049999999999937
210
-0
220
0
230
1
100
AcDbArc
50
-90
51
0
0
LINE
5
161
100
AcDbEntity
8
PERIMETER
100
AcDbLine
10
-143.495
20
-8.9999999999999893
30
0
11
-143.495
21
-2.004999999999999
31
0
0
LINE
5
162
100
AcDbEntity
8
PERIMETER
100
AcDbLine
10
-143.495
20
-2.004999999999999
30
0
11
-141.505
21
-2.004999999999999
31
0
0
LINE
5
163
100
AcDbEntity
8
PERIMETER
100
AcDbLine
10
-141.505
20
-2.004999999999999
30
0
11
-141.505
21
-8.9999999999999947
31
0
0
ARC
5
164
100
AcDbEntity
8
PERIMETER
100
AcDbCircle
10
-140.5
20
-9
30
0
40
1.0050000000000026
210
0
220
0
230
1
100
AcDbArc
50
180
51
270
0
LINE
5
165
100
AcDbEntity
8
PERIMETER
100
AcDbLine
10
-140.5
20
-10.004999999999992
30
0
11
-129.5
21
-10.004999999999992
31
0
0
ARC
5
166
100
AcDbEntity
8
PERIMETER
100
AcDbCircle
10
-129.5
20
-9
30
0
40
1.0049999999999937
210
-0
220
0
230
1
100
AcDbArc
50
-90
51
0
0
LINE
5
167
100
AcDbEntity
8
PERIMETER
100
AcDbLine
10
-128.495
20
-8.9999999999999947
30
0
11
-128.495
21
-2.004999999999999
31
0
0
LINE
5
168
100
AcDbEntity
8
PERIMETER
100
AcDbLine
10
-128.495
20
-2.004999999999999
30
0
11
-126.50500000000001
21
-2.004999999999999
31
0
0
LINE
5
169
100
AcDbEntity
8
PERIMETER
100
AcDbLine
10
-126.50500000000001
20
-2.004999999999999
30
0
11
-126.50500000000001
21
-8.9999999999999947
31
0
0
ARC
5
16A
100
AcDbEntity
8
PERIMETER
100
AcDbCircle
10
-125.5
20
-9
30
0
40
1.0050000000000026
210
0
220
0
230
1
100
AcDbArc
50
180
51
270
0
LINE
5
16B
100
AcDbEntity
8
PERIMETER
100
AcDbLine
10
-125.5
20
-10.004999999999992
30
0
11
-114.5
21
-10.004999999999992
31
0
0
ARC
5
16C
100
AcDbEntity
8
PERIMETER
100
AcDbCircle
10
-114.5
20
-9
30
0
40
1.0049999999999937
210
-0
220
0
230
1
100
AcDbArc
50
-90
51
0
0
LINE
5
16D
100
AcDbEntity
8
PERIMETER
100
AcDbLine
10
-113.49499999999999
20
-8.9999999999999947
30
0
11
-113.49499999999999
21
-2.004999999999999
31
0
0
LINE
5
16E
100
AcDbEntity
8
PERIMETER
100
AcDbLine
10
-113.49499999999999
20
-2.004999999999999
30
0
11
-111.50500000000001
21
-2.004999999999999
31
0
0
LINE
5
16F
100
AcDbEntity
8
PERIMETER
100
AcDbLine
10
-111.50500000000001
20
-2.004999999999999
30
0
11
-111.50500000000001
21
-9
31
0
0
ARC
5
170
100
AcDbEntity
8
PERIMETER
100
AcDbCircle
10
-110.5
20
-9.0000000000000036
30
0
40
1.0050000000000026
210
0
220
0
230
1
100
AcDbArc
50
180
51
270
0
LINE
5
171
100
AcDbEntity
8
PERIMETER
100
AcDbLine
10
-110.5
20
-10.004999999999997
30
0
11
-99.5
21
-10.004999999999997
31
0
0
ARC
5
172
100
AcDbEntity
8
PERIMETER
100
AcDbCircle
10
-99.5
20
-9.0000000000000036
30
0
40
1.0049999999999937
210
-0
220
0
230
1
100
AcDbArc
50
-90
51
0
0
LINE
5
173
100
AcDbEntity
8
PERIMETER
100
AcDbLine
10
-98.49499999999999
20
-9
30
0
11
-98.49499999999999
21
-2.004999999999999
31
0
0
LINE
5
174
100
AcDbEntity
8
PERIMETER
100
AcDbLine
10
-98.49499999999999
20
-2.004999999999999
30
0
11
-96.50500000000001
21
-2.004999999999999
31
0
0
LINE
5
175
100
AcDbEntity
8
PERIMETER
100
AcDbLine
10
-96.50500000000001
20
-2.004999999999999
30
0
11
-96.50500000000001
21
-9
31
0
0
ARC
5
176
100
AcDbEntity
8
PERIMETER
100
AcDbCircle
10
-95.5
20
-9.0000000000000036
30
0
40
1.0050000000000026
210
0
220
0
230
1
100
AcDbArc
50
180
51
270
0
LINE
5
177
100
AcDbEntity
8
PERIMETER
100
AcDbLine
10
-95.5
20
-10.004999999999997
30
0
11
-84.5
21
-10.004999999999997
31
0
0
ARC
5
178
100
AcDbEntity
8
PERIMETER
100
AcDbCircle
10
-84.5
20
-9.0000000000000036
30
0
40
1.0049999999999937
210
-0
220
0
230
1
100
AcDbArc
50
-90
51
0
0
LINE
5
179
100
AcDbEntity
8
PERIMETER
100
AcDbLine
10
-83.49499999999999
20
-9
30
0
11
-83.49499999999999
21
-2.004999999999999
31
0
0
LINE
5
17A
100
AcDbEntity
8
PERIMETER
100
AcDbLine
10
-83.49499999999999
20
-2.004999999999999
30
0
11
-81.50500000000001
21
-2.004999999999999
31
0
0
LINE
5
17B
100
AcDbEntity
8
PERIMETER
100
AcDbLine
10
-81.50500000000001
20
-2.004999999999999
30
0
11
-81.50500000000001
21
-9
31
0
0
ARC
5
17C
100
AcDbEntity
8
PERIMETER
100
AcDbCircle
10
-80.5
20
-9.0000000000000036
30
0
40
1.0050000000000026
210
0
220
0
230
1
100
AcDbArc
50
180
51
270
0
LINE
5
17D
100
AcDbEntity
8
PERIMETER
100
AcDbLine
10
-80.5
20
-10.004999999999997
30
0
11
-69.5
21
-10.004999999999997
31
0
0
ARC
5
17E
100
AcDbEntity
8
PERIMETER
100
AcDbCircle
10
-69.5
20
-9
30
0
40
1.0049999999999981
210
-0
220
0
230
1
100
AcDbArc
50
-90
51
0
0
LINE
5
17F
100
AcDbEntity
8
PERIMETER
100
AcDbLine
10
-68.49499999999999
20
-9
30
0
11
-68.495000000000005
21
-2.004999999999999
31
0
0
LINE
5
180
100
AcDbEntity
8
PERIMETER
100
AcDbLine
10
-68.495000000000005
20
-2.004999999999999
30
0
11
-66.504999999999995
21
-2.004999999999999
31
0
0
LINE
5
181
100
AcDbEntity
8
PERIMETER
100
AcDbLine
10
-66.504999999999995
20
-2.004999999999999
30
0
11
-66.504999999999995
21
-9.0000000000000036
31
0
0
ARC
5
182
100
AcDbEntity
8
PERIMETER
100
AcDbCircle
10
-65.5
20
-9.0000000000000036
30
0
40
1.0049999999999937
210
0
220
0
230
1
100
AcDbArc
50
180
51
270
0
LINE
5
183
100
AcDbEntity
8
PERIMETER
100
AcDbLine
10
-65.5
20
-10.004999999999997
30
0
11
-54.499999999999993
21
-10.005000000000003
31
0
0
ARC
5
184
100
AcDbEntity
8
PERIMETER
100
AcDbCircle
10
-54.499999999999993
20
-9.0000000000000036
30
0
40
1.0049999999999981
210
-0
220
0
230
1
100
AcDbArc
50
-90
51
0
0
LINE
5
185
100
AcDbEntity
8
PERIMETER
100
AcDbLine
10
-53.49499999999999
20
-9.0000000000000036
30
0
11
-53.494999999999997
21
-2.004999999999999
31
0
0
LINE
5
186
100
AcDbEntity
8
PERIMETER
100
AcDbLine
10
-53.494999999999997
20
-2.004999999999999
30
0
11
-51.505000000000003
21
-2.004999999999999
31
0
0
LINE
5
187
100
AcDbEntity
8
PERIMETER
100
AcDbLine
10
-51.505000000000003
20
-2.004999999999999
30
0
11
-51.505000000000003
21
-9.0000000000000036
31
0
0
ARC
5
188
100
AcDbEntity
8
PERIMETER
100
AcDbCircle
10
-50.500000000000007
20
-9.0000000000000036
30
0
40
1.0049999999999937
210
0
220
0
230
1
100
AcDbArc
50
180
51
270
0
LINE
5
189
100
AcDbEntity
8
PERIMETER
100
AcDbLine
10
-50.500000000000007
20
-10.004999999999997
30
0
11
-39.499999999999993
21
-10.005000000000003
31
0
0
ARC
5
18A
100
AcDbEntity
8
PERIMETER
100
AcDbCircle
10
-39.5
20
-9.0000000000000036
30
0
40
1.0049999999999981
210
-0
220
0
230
1
100
AcDbArc
50
-89.999999999999588
51
0
0
LINE
5
18B
100
AcDbEntity
8
PERIMETER
100
AcDbLine
10
-38.495000000000005
20
-9.0000000000000036
30
0
11
-38.495000000000005
21
-2.004999999999999
31
0
0
LINE
5
18C
100
AcDbEntity
8
PERIMETER
100
AcDbLine
10
-38.495000000000005
20
-2.004999999999999
30
0
11
-36.504999999999995
21
-2.004999999999999
31
0
0
LINE
5
18D
100
AcDbEntity
8
PERIMETER
100
AcDbLine
10
-36.504999999999995
20
-2.004999999999999
30
0
11
-36.504999999999995
21
-9.0000000000000036
31
0
0
ARC
5
18E
100
AcDbEntity
8
PERIMETER
100
AcDbCircle
10
-35.5
20
-9.0000000000000036
30
0
40
1.0049999999999981
210
0
220
0
230
1
100
AcDbArc
50
180
51
269.9999999999996
0
LINE
5
18F
100
AcDbEntity
8
PERIMETER
100
AcDbLine
10
-35.500000000000007
20
-10.005000000000003
30
0
11
-24.499999999999993
21
-10.005000000000003
31
0
0
ARC
5
190
100
AcDbEntity
8
PERIMETER
100
AcDbCircle
10
-24.5
20
-9.0000000000000036
30
0
40
1.0049999999999981
210
-0
220
0
230
1
100
AcDbArc
50
-89.999999999999588
51
0
0
LINE
5
191
100
AcDbEntity
8
PERIMETER
100
AcDbLine
10
-23.495000000000005
20
-9.0000000000000036
30
0
11
-23.495000000000005
21
-2.004999999999999
31
0
0
LINE
5
192
100
AcDbEntity
8
PERIMETER
100
AcDbLine
10
-23.495000000000005
20
-2.004999999999999
30
0
11
-21.504999999999995
21
-2.004999999999999
31
0
0
LINE
5
193
100
AcDbEntity
8
PERIMETER
100
AcDbLine
10
-21.504999999999995
20
-2.004999999999999
30
0
11
-21.504999999999995
21
-9.0000000000000071
31
0
0
ARC
5
194
100
AcDbEntity
8
PERIMETER
100
AcDbCircle
10
-20.5
20
-9.0000000000000071
30
0
40
1.0049999999999981
210
0
220
0
230
1
100
AcDbArc
50
180
51
269.9999999999996
0
LINE
5
195
100
AcDbEntity
8
PERIMETER
100
AcDbLine
10
-20.500000000000007
20
-10.005000000000006
30
0
11
-9.4999999999999929
21
-10.005000000000006
31
0
0
ARC
5
196
100
AcDbEntity
8
PERIMETER
100
AcDbCircle
10
-9.5000000000000036
20
-9.0000000000000071
30
0
40
1.0049999999999981
210
-0
220
0
230
1
100
AcDbArc
50
-89.999999999999389
51
0
0
LINE
5
197
100
AcDbEntity
8
PERIMETER
100
AcDbLine
10
-8.4950000000000045
20
-9.0000000000000071
30
0
11
-8.4950000000000045
21
-2.004999999999999
31
0
0
ENDSEC
0
SECTION
2
OBJECTS
0
DICTIONARY
5
C
100
AcDbDictionary
3
ACAD_GROUP
350
D
3
ACAD_MLINESTYLE
350
17
0
DICTIONARY
5
D
100
AcDbDictionary
0
DICTIONARY
5
1A
330
C
100
AcDbDictionary
0
DICTIONARY
5
17
100
AcDbDictionary
0
ENDSEC
0
EOF
